<svg xmlns="http://www.w3.org/2000/svg" viewBox="0 0 19.814 13.375">
  <defs>
    <style>
      .cls-2 {
        fill: #fff;
      }
    </style>
  </defs>
  <g id="noun_Email_681591_33c5da" class="cls-1" transform="translate(-10 -975.361)">
    <path id="Path_1817" data-name="Path 1817" class="cls-2" d="M11.486,975.362a1.486,1.486,0,0,0-.635.147l8.661,8.375a.655.655,0,0,0,.789,0l8.661-8.375a1.484,1.484,0,0,0-.635-.147H11.486Zm-1.339.851a1.485,1.485,0,0,0-.147.635v10.4a1.477,1.477,0,0,0,.232.8l6.1-5.859-6.184-5.975Zm19.52,0-6.184,5.975,6.1,5.859a1.479,1.479,0,0,0,.232-.8v-10.4a1.484,1.484,0,0,0-.147-.635Zm-12.624,6.664-6.014,5.782a1.483,1.483,0,0,0,.457.077H28.328a1.483,1.483,0,0,0,.457-.077l-6.014-5.782L21,984.6a1.577,1.577,0,0,1-2.183,0l-1.772-1.718Z" transform="translate(0 0)"/>
  </g>
</svg>
